#N canvas 788 474 450 234 10;
#N canvas 1243 414 450 300 bla 1;
#X obj 207 91 inlet;
#X obj 117 90 inlet;
#X obj 207 179 outlet;
#X obj 117 178 outlet;
#X text 208 63 1;
#X text 116 64 2;
#X text 204 205 1;
#X text 117 203 2;
#X connect 0 0 2 0;
#X connect 1 0 3 0;
#X restore 77 83 pd bla;
#X obj 68 148 print LEFT;
#X obj 152 150 print RIGHT;
#X msg 44 42 111;
#X msg 121 44 222;
#X connect 0 0 1 0;
#X connect 0 1 2 0;
#X connect 3 0 0 0;
#X connect 4 0 0 1;
